<?xml version="1.0" encoding="UTF-8" standalone="no"?>
<!DOCTYPE svg PUBLIC "-//W3C//DTD SVG 1.0//EN" "http://www.w3.org/TR/2001/REC-SVG-20010904/DTD/svg10.dtd">
<!-- Created with Inkscape (http://www.inkscape.org/) -->
<svg
   xmlns:svg="http://www.w3.org/2000/svg"
   xmlns="http://www.w3.org/2000/svg"
   version="1.0"
   width="800"
   height="800"
   id="svg2">
  <defs
     id="defs4" />
  <g
     id="layer1">
    <path
       d="M 205.60781,361.4817 L 205.60781,432.45906 L 215.57297,432.45906 C 226.2301,432.45909 234.32678,429.46046 239.86303,423.46312 C 245.39918,417.46586 248.16727,408.63494 248.16737,396.97038 C 248.16727,385.30598 245.39918,376.47506 239.86303,370.47765 C 234.32678,364.48046 226.2301,361.4818 215.57297,361.4817 L 205.60781,361.4817 z M 177.30394,336.80466 L 215.98817,336.80466 C 225.58421,336.80481 233.53094,337.43752 239.82845,338.7029 C 246.12578,339.96851 251.44284,341.97678 255.77964,344.72774 C 263.34569,349.45967 269.08949,356.28227 273.01106,365.19563 C 276.93242,374.10916 278.89318,384.75575 278.8933,397.13546 C 278.89318,409.46025 276.93242,420.05183 273.01106,428.91021 C 269.08949,437.76866 263.34569,444.59128 255.77964,449.37813 C 251.35058,452.12918 245.99892,454.13745 239.72462,455.40294 C 233.45021,456.66842 225.53808,457.30118 215.98817,457.30118 L 177.30394,457.30118 L 177.30394,336.80466 z M 300.49548,336.80466 L 388.63745,336.80466 L 388.63745,361.4817 L 328.38408,361.4817 L 328.38408,382.60984 L 380.40233,382.60984 L 380.40233,407.28686 L 328.38408,407.28686 L 328.38408,432.62414 L 388.91424,432.62414 L 388.91424,457.30118 L 300.49548,457.30118 L 300.49548,336.80466 z M 495.82075,371.6331 L 467.58612,371.6331 C 467.58605,365.85599 465.92518,361.35798 462.60353,358.13915 C 459.28176,354.92051 454.66824,353.31117 448.76302,353.31105 C 444.33401,353.31117 440.74702,354.56289 438.00202,357.06623 C 435.25694,359.56982 433.88443,362.71977 433.88448,366.51616 C 433.88443,372.84366 441.19685,377.60301 455.82168,380.79414 C 460.52738,381.7846 464.2182,382.60991 466.89408,383.2701 C 478.42776,386.07628 486.76666,390.34038 491.91082,396.06254 C 497.05476,401.78481 499.62679,409.57029 499.62689,419.41905 C 499.62679,431.63378 495.18629,441.59262 486.3054,449.29559 C 477.42434,456.99856 465.74064,460.85003 451.25431,460.85003 C 435.93744,460.85003 424.08077,457.34246 415.6842,450.32723 C 407.28761,443.31203 403.08934,433.36694 403.08936,420.49197 L 403.08936,419.74917 L 431.60081,419.74917 L 431.60081,421.81247 C 431.60076,427.7548 433.28467,432.28029 436.65257,435.38896 C 440.02039,438.4977 444.93377,440.05204 451.3927,440.05199 C 457.29794,440.05204 462.0383,438.62147 465.61385,435.76036 C 469.18922,432.8993 470.97696,429.15784 470.97703,424.53604 C 470.97696,422.66534 470.61941,420.97343 469.90438,419.46033 C 469.18922,417.94727 468.18578,416.75056 466.89408,415.87017 C 464.44886,414.21959 459.65083,412.74777 452.49996,411.45472 C 445.34897,410.16177 439.97426,408.99258 436.37575,407.94714 C 425.11879,404.6459 417.18358,400.34049 412.5701,395.0309 C 407.95658,389.7214 405.64982,382.36233 405.64982,372.95363 C 405.64982,360.51892 409.69817,350.79393 417.7949,343.77861 C 425.89154,336.76353 437.09081,333.25593 451.3927,333.25581 C 464.91022,333.25593 475.53278,336.58473 483.2605,343.24216 C 490.98802,349.89983 495.17477,359.36349 495.82075,371.6331 L 495.82075,371.6331 z M 507.0343,336.80466 L 538.10626,336.80466 L 560.32027,385.33341 L 582.60348,336.80466 L 613.74463,336.80466 L 574.36838,413.8894 L 574.36838,457.30118 L 546.13375,457.30118 L 546.13375,413.8894 L 507.0343,336.80466 z"
       id="text3548"
       style="font-size:64.48972321px;font-style:normal;font-variant:normal;font-weight:bold;font-stretch:normal;text-align:start;line-height:100%;writing-mode:lr-tb;text-anchor:start;fill:#0482d4;fill-opacity:1;stroke:none;stroke-width:1px;stroke-linecap:butt;stroke-linejoin:miter;stroke-opacity:1;font-family:Folio Bk BT;-inkscape-font-specification:Folio Bk BT Bold" />
    <path
       d="M 499,401.5 A 147.5,147.5 0 1 1 204,401.5 A 147.5,147.5 0 1 1 499,401.5 z"
       transform="matrix(2.4,0,0,2.4,-447.6,-568.1)"
       id="path3557"
       style="opacity:1;fill:none;fill-opacity:1;fill-rule:nonzero;stroke:#0482d4;stroke-width:5;stroke-linecap:butt;stroke-linejoin:miter;stroke-miterlimit:4;stroke-dasharray:none;stroke-dashoffset:0;stroke-opacity:1" />
    <path
       d="M 396,72.625 C 393.98983,72.625 392.00136,72.663544 390,72.7 L 390,118.525 C 346.43014,121.60617 312,157.95033 312,202.3 C 312,246.64967 346.43014,282.99383 390,286.075 L 390,323.8 L 402,323.8 L 402,286.075 C 445.56986,282.99383 480,246.64967 480,202.3 C 480,157.95033 445.56986,121.60617 402,118.525 L 402,72.7 C 399.99864,72.663544 398.01017,72.625 396,72.625 z M 638.625,182.425 L 589.425,224.425 C 579.31841,216.83008 564.93547,216.92524 554.925,225.475 C 544.9206,234.01955 542.56829,248.20787 548.475,259.375 L 473.025,323.8 L 491.55,323.8 L 556.275,268.525 C 566.38334,276.14606 580.75318,276.03443 590.775,267.475 C 600.7794,258.93042 603.13171,244.74213 597.225,233.575 L 646.425,191.575 C 643.89874,188.47571 641.26262,185.42692 638.625,182.425 z M 152.625,183.25 C 150.00576,186.25158 147.40831,189.30194 144.9,192.4 L 171.825,215.425 C 156.15408,238.39422 160.02614,270.00647 181.65,288.475 C 203.28833,306.95589 235.06702,305.78289 255.3,286.675 L 298.725,323.8 L 317.175,323.8 L 263.025,277.525 C 278.72333,254.55294 274.98468,222.95274 253.35,204.475 C 231.71167,185.99411 199.85798,187.16709 179.625,206.275 L 152.625,183.25 z M 305.175,467.2 L 234,527.95 C 223.89598,520.39235 209.56927,520.53909 199.575,529.075 C 189.5706,537.61955 187.14329,551.73287 193.05,562.9 L 147.525,601.825 C 150.07284,604.8905 152.74224,607.93209 155.4,610.9 L 200.85,572.05 C 210.96043,579.70319 225.38928,579.57131 235.425,571 C 245.45323,562.43507 247.76038,548.27937 241.8,537.1 L 323.625,467.2 L 305.175,467.2 z M 390,467.2 L 390,506.125 C 346.43014,509.20617 312,545.55033 312,589.9 C 312,634.24967 346.43014,670.59383 390,673.675 L 390,718.3 C 392.00136,718.33646 393.98983,718.375 396,718.375 C 398.01017,718.375 399.99864,718.33646 402,718.3 L 402,673.675 C 445.56986,670.59383 480,634.24967 480,589.9 C 480,545.55033 445.56986,509.20617 402,506.125 L 402,467.2 L 390,467.2 z M 466.575,467.2 L 527.175,518.95 C 511.50408,541.91922 515.37612,573.53145 537,592 C 558.62566,610.47006 590.41529,609.27568 610.65,590.2 L 635.85,611.725 C 638.51657,608.7676 641.16797,605.70518 643.725,602.65 L 618.45,581.05 C 634.08377,558.08469 630.30917,526.531 608.7,508.075 C 587.08946,489.61787 555.28673,490.76272 535.05,509.8 L 485.175,467.2 L 466.575,467.2 z"
       id="path3559"
       style="fill:#0482d4;fill-opacity:1;fill-rule:evenodd;stroke:none;stroke-width:5;stroke-linecap:butt;stroke-linejoin:miter;stroke-miterlimit:4;stroke-dasharray:none;stroke-opacity:1" />
  </g>
</svg>
